<svg width="116" height="40" viewBox="0 0 116 40" fill="none" xmlns="http://www.w3.org/2000/svg">
<path d="M112.871 1.24824e-05L0 14.8486L3.1293 40L116 25.1515L112.871 1.24824e-05Z" fill="#E5E7EB"/>
<path d="M10.0339 19.6257L13.4656 28.6818C14.2248 30.6803 15.5307 31.2736 17.4135 30.5242C19.2964 29.7747 19.8431 28.4007 19.0838 26.4021L15.6521 17.3461L21.1793 15.129L25.0361 25.3092C25.8561 27.4951 25.7954 29.4 24.7932 31.0551C23.8214 32.7101 21.9385 34.0841 19.1749 35.1771C16.4114 36.3013 14.1337 36.5823 12.3116 36.0515C10.5198 35.5206 9.18356 34.1778 8.3636 31.9919L4.53711 21.8429L10.0339 19.6257Z" fill="#303030"/>
<path d="M23.6078 7.10344L23.3649 6.91608L23.2131 6.35398L23.3345 6.07293C23.0916 5.16733 22.8183 4.07436 22.6057 3.13753C22.5449 2.88771 22.4538 2.79403 22.2109 2.85649C21.5731 2.95017 20.905 3.04385 20.2673 3.16876C19.9636 3.23122 19.8117 3.16876 19.7206 2.82526C19.5991 2.38807 19.3866 2.26316 18.931 2.32562C18.5059 2.38807 18.0807 2.45053 17.6555 2.51298C16.3193 2.70035 14.9831 2.88771 13.6165 3.07508C13.4039 3.10631 13.252 3.07508 13.1913 2.82526C13.0395 2.45053 12.8572 2.0758 12.7054 1.73229C12.4928 1.2951 12.4321 1.26388 11.9765 1.42001C10.8529 1.79475 9.72924 2.16948 8.63596 2.54421C8.48411 2.60666 8.3019 2.63789 8.15006 2.70035C7.816 2.82526 7.72489 3.01262 7.84637 3.35613C7.93747 3.6684 8.05895 3.98068 8.15006 4.29296C8.27153 4.63646 8.24116 4.69892 7.9071 4.76137C7.4212 4.85505 6.78345 4.97997 6.32792 5.07365C5.93312 5.1361 5.90275 5.16733 5.99386 5.54206C6.38866 7.41572 8.02858 13.7862 8.02858 13.7862C8.11969 14.1609 8.18043 14.1921 8.54485 14.0984C8.93965 14.0048 9.36481 13.9423 9.75961 13.8174C9.94182 13.7549 10.0633 13.8174 10.124 14.0048C10.3063 14.5044 10.5188 14.9728 10.7314 15.4725C10.8225 15.7223 10.9744 15.7847 11.2173 15.7847C12.2499 15.7535 13.2824 15.7223 14.2846 15.691C15.1957 15.6598 15.0742 15.691 15.4082 16.5654C15.9549 18.1268 19.3866 25.7151 19.751 26.9642L21.148 26.527C21.0265 26.1211 16.4104 15.0977 16.2889 14.723C16.1978 14.4107 16.046 14.317 15.7119 14.3795C14.5883 14.5668 13.4343 14.723 12.2802 14.8791C12.0677 14.9104 11.9462 14.8479 11.8854 14.6605C11.764 14.3795 11.6121 14.0672 11.4906 13.7862C11.3692 13.5676 11.4603 13.4739 11.6729 13.4427C12.1588 13.3177 12.6447 13.1928 13.1913 13.0367C13.0395 12.6932 12.918 12.3497 12.7965 12.0374C12.098 10.4448 11.4299 8.85219 10.7314 7.22836C10.2151 6.07293 9.72924 4.88628 9.21297 3.73086C9.12186 3.54349 9.09149 3.44981 9.30408 3.35613C10.0329 3.13753 10.7618 2.82526 11.521 2.54421C11.764 2.45053 14.2846 9.07079 14.4668 9.07079C14.649 9.07079 13.3735 4.48032 13.4343 4.38664C13.7379 3.98068 14.4668 4.10559 14.5579 4.32418C14.7705 4.85505 15.0438 5.54206 15.2564 6.07293C15.5601 6.79117 15.8638 7.54063 16.1675 8.25887C16.1978 8.25887 16.2282 8.22764 16.2586 8.22764C16.1675 7.75922 16.0764 7.29081 15.9852 6.79117C15.8334 5.97925 15.6816 5.1361 15.5297 4.32418C15.4993 4.07436 15.5297 3.94945 15.803 3.91823C16.5623 3.79332 16.5926 3.79331 16.8963 4.51155C17.3215 5.51083 17.777 6.47889 18.2022 7.47818C18.2325 7.54063 18.2629 7.57186 18.354 7.60309C18.2933 7.29081 18.2629 6.97853 18.2022 6.66626C18.02 5.72943 17.8681 4.82383 17.6555 3.887C17.5948 3.6684 17.6555 3.54349 17.8681 3.48104C18.6881 3.29367 18.597 3.19999 18.8703 4.01191C19.6295 6.35398 20.3584 8.69605 21.1176 11.0069C21.2087 11.2567 21.148 11.4129 20.9658 11.5378C20.4798 11.9125 20.0243 12.2872 19.5688 12.662C19.174 13.0055 19.174 13.0992 19.3562 13.5988C19.4777 13.9111 23.7293 25.3404 23.8508 25.7151L25.0959 25.3404C24.5493 23.779 21.2694 15.0977 20.6924 13.7549C20.571 13.5051 20.6317 13.349 20.7835 13.1616C21.1783 12.6932 21.5731 12.2248 21.9983 11.7564C22.2412 11.4753 22.6057 11.2255 22.3931 10.7259L24.0634 10.3511C24.3063 10.2574 24.3974 10.2262 24.3367 9.94516C24.0634 8.94587 23.8508 8.10273 23.6078 7.10344ZM11.1566 11.0381C11.5817 10.9444 12.0373 11.2255 12.1588 11.6939C12.2802 12.1623 12.0069 12.6307 11.5817 12.7244L9.1826 13.2865C8.75744 13.3802 8.3019 13.0992 8.18042 12.6307C8.05895 12.1623 8.33227 11.6939 8.75743 11.6002L11.1566 11.0381Z" fill="#303030"/>
<path d="M8.84837 11.7876C8.51431 11.8813 8.30173 12.256 8.42321 12.5995C8.51431 12.943 8.87874 13.1616 9.2128 13.0367C9.54686 12.943 9.75944 12.5683 9.63796 12.2248C9.54686 11.8813 9.18243 11.6939 8.84837 11.7876Z" fill="#303030"/>
<path d="M11.2771 11.4129C11.0038 11.5065 10.8823 11.7876 10.9431 12.0374C11.0342 12.3185 11.3075 12.4434 11.5504 12.3809C11.8238 12.2872 11.9452 12.0062 11.8845 11.7564C11.7934 11.4753 11.5201 11.3192 11.2771 11.4129Z" fill="#303030"/>
<path d="M10.2152 11.85C10.0634 11.8813 10.0026 12.0374 10.033 12.1935C10.0634 12.3497 10.2152 12.4121 10.367 12.3809C10.5189 12.3497 10.5796 12.1935 10.5493 12.0374C10.5189 11.9125 10.367 11.8188 10.2152 11.85Z" fill="#303030"/>
<path d="M17.0787 16.7216C16.6232 15.5974 16.2891 14.8167 16.2587 14.723C16.1676 14.4107 16.0158 14.317 15.6817 14.3795C14.5581 14.5668 13.4041 14.723 12.25 14.8791C12.0375 14.9104 11.916 14.8479 11.8552 14.6605C11.7338 14.3795 11.5819 14.0672 11.4604 13.7862C11.339 13.5676 11.4301 13.4739 11.6427 13.4427C12.1286 13.3177 12.6145 13.1928 13.1611 13.0367C13.0093 12.6932 12.8878 12.3497 12.7663 12.0374C12.0678 10.4448 11.3997 8.85219 10.7012 7.22836C10.1849 6.07293 9.69905 4.88628 9.18277 3.73086C9.09167 3.54349 9.0613 3.44981 9.27388 3.35613C10.0331 3.07508 10.762 2.79403 11.4908 2.48175C11.7338 2.38807 14.2544 9.03956 14.467 9.00833C14.6492 8.9771 13.3737 4.41787 13.4344 4.32418C13.7381 3.91823 14.467 4.04314 14.5581 4.26173C14.7707 4.7926 15.044 5.47961 15.2566 6.01048C15.5603 6.72871 15.8639 7.47818 16.1676 8.19641C16.198 8.19641 16.2284 8.16518 16.2587 8.16518C16.1676 7.69677 16.0765 7.22836 15.9854 6.72871C15.8336 5.91679 15.6817 5.07365 15.5299 4.26173C15.4995 4.04314 15.4995 3.91823 15.7728 3.887C16.5321 3.76209 16.5624 3.76209 16.8661 4.48032C17.2913 5.47961 17.7468 6.44766 18.172 7.44695C18.2024 7.5094 18.2327 7.54063 18.3238 7.57186C18.2631 7.25958 18.2327 6.94731 18.172 6.63503C17.9898 5.6982 17.8379 4.7926 17.6253 3.85577C17.5646 3.63718 17.6253 3.51227 17.8379 3.44981C18.6579 3.26245 18.5668 3.16876 18.8401 3.98068C19.5993 6.32275 20.3282 8.66483 21.0874 10.9757C21.1785 11.2255 21.1178 11.3816 20.9356 11.5065C20.4497 11.8813 19.9941 12.256 19.5386 12.6307C19.1438 12.9742 19.1438 13.0679 19.326 13.5676C19.3564 13.63 19.6297 14.4107 20.0549 15.5349L17.0787 16.7216Z" fill="#E5E7EB"/>
<path d="M32.0513 38.6121L26.1597 39.2991L23.5176 15.5037L29.4092 14.8167L29.6217 16.7215C30.6846 14.9416 32.3246 13.9423 34.4808 13.6612C35.6652 13.5363 36.8192 13.63 37.8821 14.0047C38.9754 14.3482 39.9472 14.9103 40.7975 15.6598C41.6478 16.4093 42.3463 17.2836 42.893 18.3766C43.4396 19.4383 43.7737 20.625 43.9255 21.8741C44.0774 23.1544 43.9862 24.3411 43.6826 25.4965C43.3789 26.6519 42.893 27.6824 42.2552 28.588C41.5871 29.4936 40.7975 30.2431 39.8257 30.8364C38.8539 31.4298 37.791 31.7733 36.5762 31.9294C34.4808 32.1792 32.689 31.6483 31.1098 30.3368L32.0513 38.6121ZM37.791 22.5923C37.7302 22.0615 37.5784 21.5618 37.3354 21.0934C37.0925 20.625 36.7888 20.2503 36.394 19.938C35.9992 19.6257 35.574 19.3759 35.0881 19.2197C34.6022 19.0636 34.086 19.0012 33.5393 19.0948C33.0231 19.1573 32.5372 19.3134 32.112 19.5633C31.6868 19.8131 31.3224 20.1566 31.0187 20.5313C30.715 20.9373 30.5024 21.3745 30.3506 21.8741C30.1987 22.3737 30.138 22.9046 30.1987 23.4355C30.2595 23.9663 30.4113 24.466 30.6543 24.9032C30.8972 25.3404 31.2313 25.7151 31.5957 26.0274C31.9905 26.3396 32.4157 26.5582 32.9016 26.7144C33.3875 26.8705 33.9038 26.933 34.42 26.8705C34.9363 26.8081 35.4222 26.6519 35.8474 26.4021C36.2725 26.1523 36.637 25.8088 36.9407 25.434C37.2443 25.0281 37.4569 24.5909 37.6088 24.0913C37.791 23.6228 37.8214 23.1232 37.791 22.5923Z" fill="#303030"/>
<path d="M71.3795 9.63287L77.3014 8.94586L79.2146 26.1211L73.2927 26.8081L73.0801 24.9032C72.0172 26.6831 70.3773 27.6824 68.2514 27.9323C67.0367 28.0884 65.8827 27.9635 64.8198 27.6512C63.7568 27.3077 62.785 26.7768 61.9347 26.0274C61.0844 25.2779 60.3859 24.4035 59.8392 23.3106C59.2926 22.2488 58.9585 21.0622 58.8067 19.7506C58.6852 18.5327 58.746 17.3461 59.0497 16.1907C59.3533 15.0352 59.8089 14.0047 60.4466 13.0991C61.0844 12.1935 61.9043 11.4441 62.8761 10.8195C63.848 10.2262 64.9412 9.85146 66.1864 9.69532C68.2818 9.4455 70.0736 10.0076 71.6224 11.3192L71.3795 9.63287ZM64.8805 19.0324C64.9412 19.5945 65.0931 20.0941 65.336 20.5625C65.579 21.031 65.8827 21.4057 66.2775 21.718C66.6419 22.0302 67.0974 22.2801 67.5833 22.405C68.0692 22.5611 68.5855 22.5923 69.1322 22.5299C69.6484 22.4674 70.1343 22.3113 70.5899 22.0615C71.0454 21.8116 71.4098 21.4681 71.7135 21.0934C72.0172 20.6874 72.2298 20.2503 72.3816 19.7506C72.5335 19.251 72.5942 18.7513 72.5335 18.2205C72.4727 17.6896 72.3209 17.19 72.0476 16.7215C71.7742 16.2531 71.4706 15.8784 71.1061 15.5661C70.7417 15.2538 70.2862 15.004 69.8003 14.8791C69.3144 14.723 68.7981 14.6917 68.2818 14.7542C67.7352 14.8167 67.2493 14.9728 66.7937 15.2226C66.3382 15.4724 65.9738 15.8159 65.6701 16.1907C65.3664 16.5966 65.1538 17.0338 65.002 17.5022C64.8805 17.9706 64.8198 18.5015 64.8805 19.0324Z" fill="#303030"/>
<path d="M89.8122 11.6314C88.6582 11.1943 87.5649 11.0069 86.5324 11.1318C85.9857 11.1943 85.5606 11.3504 85.2569 11.6314C84.9532 11.8813 84.8013 12.2248 84.8621 12.5995C84.8925 12.7869 84.9228 12.9742 84.9836 13.0679C85.0443 13.1928 85.1961 13.2865 85.3784 13.3802C85.5606 13.4739 85.8643 13.5363 86.2287 13.5988C86.5931 13.6612 87.079 13.6925 87.6864 13.7549C89.3567 13.9111 90.6322 14.3483 91.5433 15.1289C92.4543 15.8784 92.9706 16.9401 93.1224 18.2829C93.2439 19.2822 93.1528 20.219 92.8491 21.0622C92.5454 21.9053 92.0899 22.6548 91.4522 23.2794C90.8144 23.9039 90.0248 24.4348 89.0834 24.8407C88.1419 25.2467 87.079 25.5277 85.925 25.6839C83.6777 25.9337 81.3697 25.559 79.0312 24.4972L80.7015 19.9692C82.4933 20.9373 84.1029 21.3432 85.5909 21.1559C86.1376 21.0934 86.5628 20.9061 86.8968 20.625C87.2309 20.344 87.3523 20.0005 87.322 19.6257C87.2916 19.4071 87.2612 19.2198 87.1701 19.0949C87.1094 18.9699 86.9575 18.845 86.7753 18.7201C86.5931 18.6264 86.3198 18.5328 85.9857 18.4703C85.6517 18.4078 85.1961 18.3454 84.6191 18.3142C82.7666 18.158 81.4304 17.7208 80.6104 17.0651C79.7905 16.4093 79.3349 15.41 79.1831 14.0984C79.0616 13.1304 79.1527 12.256 79.426 11.4441C79.6994 10.6322 80.1245 9.91393 80.7015 9.3206C81.2786 8.69605 82.0378 8.19641 82.9185 7.79045C83.7992 7.38449 84.8317 7.13467 85.9554 7.00976C87.8079 6.79116 89.63 6.9473 91.4522 7.47817L89.8122 11.6314Z" fill="#303030"/>
<path d="M98.1039 15.9721C98.4076 18.5952 99.7438 19.7507 102.113 19.4696C103.388 19.3135 104.299 18.6577 104.815 17.5335L110.525 16.8777C109.796 20.9373 107.154 23.2482 102.568 23.779C101.171 23.9352 99.8349 23.8727 98.6202 23.5917C97.4054 23.3106 96.3425 22.7797 95.4011 22.0927C94.49 21.3745 93.7308 20.5001 93.1538 19.4384C92.5768 18.3766 92.2123 17.1588 92.0605 15.7847C91.9086 14.3483 91.9694 13.0367 92.2731 11.8501C92.5767 10.6634 93.093 9.60168 93.7915 8.69608C94.49 7.79047 95.4011 7.07224 96.4944 6.51014C97.5876 5.94804 98.8328 5.57331 100.29 5.41717C101.687 5.26104 102.993 5.32349 104.178 5.63577C105.362 5.94804 106.364 6.44769 107.245 7.19715C108.126 7.94661 108.824 8.88344 109.371 10.0076C109.917 11.1631 110.282 12.4746 110.434 13.9735L110.494 14.5981L98.1039 15.9721ZM104.633 11.6315C104.33 10.8196 103.874 10.1638 103.206 9.72659C102.538 9.2894 101.779 9.10204 100.898 9.22695C99.9868 9.32063 99.2579 9.66413 98.7417 10.2262C98.2254 10.7883 97.9217 11.5066 97.8913 12.4434L104.633 11.6315Z" fill="#303030"/>
<path d="M56.529 17.0963C56.1645 16.7216 55.6786 16.4093 55.1016 16.2219C54.5246 16.0345 53.9476 15.9721 53.3706 16.0345C52.7632 16.097 52.247 16.2844 51.7914 16.5966C51.3359 16.9089 50.9715 17.2836 50.6678 17.7208C50.3641 18.158 50.1515 18.6889 50.03 19.251C49.9085 19.8131 49.8478 20.4064 49.9389 20.9997C49.9996 21.6243 50.1515 22.1864 50.3944 22.686C50.6374 23.2169 50.9715 23.6541 51.3663 24.0288C51.761 24.4035 52.2166 24.6846 52.7329 24.8407C53.2491 25.0281 53.8261 25.0593 54.4335 24.9969C55.0105 24.9344 55.5572 24.7471 56.1038 24.466C56.6504 24.185 57.0452 23.8102 57.3489 23.3418L60.9021 26.9018C60.2644 27.6824 59.414 28.3382 58.3511 28.8691C57.2882 29.4 56.1038 29.7435 54.8587 29.8996C53.5224 30.0557 52.2166 29.9933 51.0018 29.7122C49.7871 29.4312 48.6938 28.9316 47.7523 28.2133C46.8109 27.4951 46.0213 26.5895 45.3836 25.4965C44.7762 24.4035 44.3814 23.1232 44.1992 21.6867C44.0473 20.2503 44.1384 18.9387 44.5029 17.7208C44.8673 16.503 45.4443 15.4412 46.2035 14.5356C46.9628 13.63 47.9346 12.8806 49.0278 12.3185C50.1515 11.7564 51.3663 11.3816 52.7025 11.2255C53.3099 11.163 53.9476 11.1318 54.555 11.1943C55.1624 11.2255 55.7697 11.3192 56.3468 11.4753C56.9238 11.6002 57.4704 11.7876 57.9563 12.0374C58.4422 12.2872 58.8977 12.537 59.2925 12.8493L56.529 17.0963Z" fill="#303030"/>
</svg>
