<svg xmlns="http://www.w3.org/2000/svg" viewBox="0 0 382 128.11"><defs><style>.cls-1{fill:#ffe500;}.cls-2{fill:#5a00bd;}</style></defs><title>Logo</title><g id="Layer_2" data-name="Layer 2"><g id="Capa_1" data-name="Capa 1"><rect class="cls-1" x="3.64" y="23.44" width="374.73" height="81.23" transform="translate(-6.58 24.75) rotate(-7.29)"/><path class="cls-2" d="M33.05,62.76l11.33,29q3.72,9.55,13,5.94t5.52-13.15l-11.32-29,18.18-7.1L82.42,81q4.08,10.44-.77,18.35T63.15,112.6q-13.66,5.34-22.59,2.8t-13-13L14.86,69.85Z"/><path class="cls-2" d="M77.66,22.69l-.85-.57-.47-1.82.43-.91C76,16.46,75.09,13,74.37,10c-.19-.76-.51-1.06-1.3-.94-2.13.34-4.28.57-6.4,1-1,.18-1.52,0-1.82-1.07-.41-1.44-1.08-1.79-2.59-1.61s-2.83.36-4.25.55L44.75,9.69c-.68.09-1.15,0-1.44-.77a38.28,38.28,0,0,0-1.63-3.5c-.7-1.38-1-1.48-2.38-1L28.41,8.13c-.53.18-1.07.33-1.59.53-1.11.43-1.37,1-1,2.12s.66,2,1,3S27.08,15,26,15.23c-1.58.28-3.66.72-5.24,1-1.3.23-1.35.27-1.08,1.52,1.29,6,6.75,26.44,6.75,26.44.28,1.16.5,1.29,1.69,1s2.66-.55,4-.87a.88.88,0,0,1,1.21.61c.63,1.59,1.34,3.14,2,4.73a1.41,1.41,0,0,0,1.58,1c3.38-.13,6.76-.19,10.14-.29,3-.09,2.64,0,3.66,2.83,1.83,5,13.1,29.34,14.33,33.26l4.58-1.36c-.43-1.33-15.63-36.6-16-37.82-.28-1-.8-1.33-1.89-1.15-3.75.6-7.51,1.08-11.27,1.63a1.11,1.11,0,0,1-1.34-.69c-.44-.95-.87-1.9-1.34-2.84-.36-.71-.1-1,.62-1.13,1.58-.38,3.16-.84,5-1.32-.47-1.15-.88-2.19-1.34-3.22q-3.39-7.7-6.81-15.37c-1.65-3.72-3.3-7.45-5-11.16-.25-.56-.41-.92.35-1.2C33,10,35.44,9,37.86,8.07,38.67,7.75,47,29,47.61,29s-3.64-14.68-3.36-15c1-1.27,3.44-.92,3.71-.24.7,1.71,1.62,3.9,2.34,5.6q1.47,3.49,3,7l.3-.09c-.29-1.52-.58-3-.88-4.56-.51-2.63-1-5.26-1.55-7.89-.14-.74-.05-1.1.85-1.24,2.55-.38,2.55-.44,3.6,1.87,1.45,3.17,2.86,6.35,4.29,9.53a.62.62,0,0,0,.46.38c-.18-1-.34-2-.53-3-.58-3-1.15-6-1.78-8.91-.15-.74,0-1.11.73-1.27,2.68-.56,2.43-.92,3.3,1.71,2.46,7.48,4.92,15,7.43,22.43A1.32,1.32,0,0,1,69,37c-1.56,1.17-3.11,2.36-4.58,3.64-1.29,1.1-1.27,1.4-.67,3,.37,1,14.43,37.62,14.81,38.84l4.08-1.21c-1.77-5-12.59-32.78-14.5-37.08a1.51,1.51,0,0,1,.31-1.92c1.35-1.46,2.65-3,4-4.45.83-.94,2-1.7,1.34-3.31l5.48-1.21c.82-.29,1.13-.43.89-1.31C79.18,28.59,78.5,25.92,77.66,22.69Zm-41,12.59A2.78,2.78,0,0,1,40,37.38a2.72,2.72,0,0,1-2,3.33L30.07,42.5a2.78,2.78,0,0,1-3.28-2.1,2.73,2.73,0,0,1,1.95-3.34Z"/><path class="cls-2" d="M29.11,37.74a2.11,2.11,0,1,0,2.62,1.42,2.1,2.1,0,0,0-2.62-1.42Z"/><path class="cls-2" d="M37.09,36.47a1.62,1.62,0,1,0,.92,3.1,1.62,1.62,0,0,0-.92-3.1Z"/><path class="cls-2" d="M33.62,37.92a.9.9,0,1,0,1.12.61.9.9,0,0,0-1.12-.61Z"/><path class="cls-1" d="M56.17,53.54c-1.52-3.6-2.57-6.12-2.65-6.43-.28-1-.8-1.32-1.89-1.15-3.75.61-7.51,1.08-11.27,1.64A1.13,1.13,0,0,1,39,46.9c-.43-.95-.87-1.9-1.34-2.83-.36-.72-.1-1,.62-1.14,1.59-.38,3.16-.84,5-1.32-.47-1.15-.88-2.19-1.33-3.22L35.1,23c-1.65-3.72-3.3-7.45-5-11.16-.25-.56-.4-.92.35-1.19,2.45-.9,4.9-1.81,7.32-2.78.81-.32,9.15,21,9.76,20.88s-3.65-14.68-3.37-15c1-1.27,3.44-.92,3.72-.23.69,1.7,1.61,3.89,2.33,5.59,1,2.34,2,4.66,3,7l.3-.09c-.29-1.52-.58-3-.88-4.56-.51-2.63-1-5.26-1.54-7.89-.15-.74-.06-1.1.84-1.24,2.55-.38,2.55-.44,3.61,1.87,1.44,3.17,2.85,6.35,4.28,9.53a.62.62,0,0,0,.46.38c-.17-1-.34-2-.53-3-.58-3-1.15-6-1.78-8.91-.15-.73,0-1.11.74-1.27,2.67-.55,2.42-.91,3.29,1.71,2.47,7.48,4.92,15,7.43,22.43a1.31,1.31,0,0,1-.52,1.75c-1.56,1.17-3.11,2.36-4.58,3.64-1.29,1.11-1.27,1.4-.67,3,.09.25,1,2.7,2.39,6.26Z"/><path class="cls-2" d="M105.46,123.63l-19.39,2.22-8.7-76.17,19.4-2.22.7,6.11q5.31-8.52,16-9.75a26.46,26.46,0,0,1,11.25,1,28.09,28.09,0,0,1,9.56,5.26,28.67,28.67,0,0,1,6.9,8.65A31.67,31.67,0,0,1,144.61,70a30.62,30.62,0,0,1-.8,11.6,29.3,29.3,0,0,1-4.73,9.87,26.69,26.69,0,0,1-18.7,10.71,23,23,0,0,1-17.95-5.11Zm18.9-51.31a13.4,13.4,0,0,0-1.47-4.77,11.72,11.72,0,0,0-3.09-3.72,13.09,13.09,0,0,0-4.33-2.27,12.35,12.35,0,0,0-5.09-.45,12.06,12.06,0,0,0-8.32,4.64,13.61,13.61,0,0,0-2.22,4.32,11.84,11.84,0,0,0-.46,5A12.06,12.06,0,0,0,104,83.38a13.51,13.51,0,0,0,4.32,2.22,11.82,11.82,0,0,0,5,.46,12.12,12.12,0,0,0,8.32-4.64,13.8,13.8,0,0,0,2.23-4.27A11.6,11.6,0,0,0,124.36,72.32Z"/><path class="cls-2" d="M235,30.76l19.51-2.22,6.27,55-19.5,2.22-.7-6.1q-5.33,8.52-15.93,9.74a27.64,27.64,0,0,1-11.29-.94,26.76,26.76,0,0,1-9.49-5.16,28.55,28.55,0,0,1-6.9-8.65,32.13,32.13,0,0,1-3.42-11.45,31.25,31.25,0,0,1,.75-11.43,29,29,0,0,1,4.63-9.91A26.56,26.56,0,0,1,217.72,31a22.56,22.56,0,0,1,17.86,5.24ZM213.64,60.88a12.87,12.87,0,0,0,4.62,8.59,11.84,11.84,0,0,0,4.27,2.22,12.88,12.88,0,0,0,5.09.4,12.66,12.66,0,0,0,4.77-1.52,11.94,11.94,0,0,0,3.66-3.13,14.23,14.23,0,0,0,2.22-4.27,11.55,11.55,0,0,0,.47-4.94,12.12,12.12,0,0,0-1.57-4.76A13.66,13.66,0,0,0,234,49.76a11.86,11.86,0,0,0-4.27-2.23,12.66,12.66,0,0,0-5-.41,13,13,0,0,0-4.87,1.54,11.81,11.81,0,0,0-3.66,3.13A13.29,13.29,0,0,0,214.06,56,12,12,0,0,0,213.64,60.88Z"/><path class="cls-2" d="M295.71,37.23a22.84,22.84,0,0,0-10.82-1.59,7.93,7.93,0,0,0-4.22,1.57,3.32,3.32,0,0,0-1.33,3.08,3.8,3.8,0,0,0,.45,1.52,2.69,2.69,0,0,0,1.3,1,10.2,10.2,0,0,0,2.79.66c1.21.15,2.81.33,4.79.54q8.22.69,12.65,4.36a14.71,14.71,0,0,1,5.17,10.11,19.13,19.13,0,0,1-.94,8.9,18.65,18.65,0,0,1-4.61,7.09,25.74,25.74,0,0,1-7.79,5,37.17,37.17,0,0,1-10.44,2.66A43.37,43.37,0,0,1,260,78.32l5.5-14.53q8.79,4.65,16.07,3.81a7.57,7.57,0,0,0,4.26-1.68,3.54,3.54,0,0,0,1.37-3.19,5,5,0,0,0-.47-1.74,2.91,2.91,0,0,0-1.27-1.16,9.19,9.19,0,0,0-2.64-.78c-1.15-.2-2.63-.37-4.46-.52q-9.21-.8-13.2-4t-4.73-9.5a19.68,19.68,0,0,1,.77-8.5,17.4,17.4,0,0,1,4.21-6.83,23.2,23.2,0,0,1,7.32-4.85,34.45,34.45,0,0,1,10-2.55,46.19,46.19,0,0,1,18.08,1.52Z"/><path class="cls-2" d="M323,51.07q1.43,12.54,13.22,11.19A10.6,10.6,0,0,0,345.21,56L364,53.89Q360.44,73.41,337.72,76a37.6,37.6,0,0,1-13-.63,28.68,28.68,0,0,1-10.59-4.82,26.68,26.68,0,0,1-7.43-8.49,30.75,30.75,0,0,1-3.62-11.74,34.18,34.18,0,0,1,.73-12.62,26.3,26.3,0,0,1,5-10.08,27.17,27.17,0,0,1,8.91-7A36.54,36.54,0,0,1,330.23,17a35.67,35.67,0,0,1,12.77.66,25.49,25.49,0,0,1,10.12,5,26.35,26.35,0,0,1,7,9,38.29,38.29,0,0,1,3.51,12.67l.24,2Zm21.43-13.84a11.76,11.76,0,0,0-4.71-6.09,12.39,12.39,0,0,0-14.64,1.56,10.75,10.75,0,0,0-2.83,7.06Z"/><path class="cls-2" d="M186.1,54.68a11.35,11.35,0,0,0-4.66-2.79,13.32,13.32,0,0,0-5.67-.61,11.85,11.85,0,0,0-5.17,1.79,12.8,12.8,0,0,0-3.7,3.63,14.85,14.85,0,0,0-2.13,4.87,15.6,15.6,0,0,0-.33,5.64A16.7,16.7,0,0,0,166,72.64a13.67,13.67,0,0,0,3.18,4.27,12.52,12.52,0,0,0,4.53,2.62,12.89,12.89,0,0,0,5.6.51,15.63,15.63,0,0,0,5.46-1.71,10.85,10.85,0,0,0,4.11-3.62l11.7,11.36a24.28,24.28,0,0,1-8.43,6.33,35.72,35.72,0,0,1-11.52,3.26,37.2,37.2,0,0,1-12.66-.61,29.13,29.13,0,0,1-10.7-4.78,28,28,0,0,1-7.78-8.66,30.83,30.83,0,0,1-3.87-12.25,30.78,30.78,0,0,1,1-12.69,28,28,0,0,1,5.63-10.19,29.86,29.86,0,0,1,9.34-7.13,36.27,36.27,0,0,1,12.08-3.49,33.72,33.72,0,0,1,6.11-.13,40.92,40.92,0,0,1,5.93.87,26.89,26.89,0,0,1,5.35,1.79A22.08,22.08,0,0,1,195.41,41Z"/></g></g></svg>