<svg width="116" height="40" viewBox="0 0 116 40" fill="none" xmlns="http://www.w3.org/2000/svg">
<path d="M112.871 1.24824e-05L0 14.8486L3.1293 40L116 25.1515L112.871 1.24824e-05Z" fill="#FFE500"/>
<path d="M10.0349 19.6257L13.4666 28.6818C14.2258 30.6803 15.5316 31.2736 17.4145 30.5242C19.2974 29.7747 19.844 28.4007 19.0848 26.4021L15.6531 17.3461L21.1803 15.129L25.0371 25.3092C25.8571 27.4951 25.7963 29.4 24.7942 31.0551C23.8224 32.7101 21.9395 34.0841 19.1759 35.1771C16.4123 36.3013 14.1347 36.5823 12.3125 36.0515C10.5208 35.5206 9.18453 34.1778 8.36457 31.9919L4.53809 21.8429L10.0349 19.6257Z" fill="#5A00BD"/>
<path d="M23.6098 7.10344L23.3668 6.91608L23.215 6.35398L23.3365 6.07293C23.0935 5.16733 22.8202 4.07436 22.6076 3.13753C22.5469 2.88771 22.4558 2.79403 22.2128 2.85649C21.5751 2.95017 20.907 3.04385 20.2692 3.16876C19.9655 3.23122 19.8137 3.16876 19.7226 2.82526C19.6011 2.38807 19.3885 2.26316 18.933 2.32562C18.5078 2.38807 18.0827 2.45053 17.6575 2.51298C16.3213 2.70035 14.985 2.88771 13.6184 3.07508C13.4058 3.10631 13.254 3.07508 13.1933 2.82526C13.0414 2.45053 12.8592 2.0758 12.7074 1.73229C12.4948 1.2951 12.434 1.26388 11.9785 1.42001C10.8548 1.79475 9.73119 2.16948 8.63791 2.54421C8.48607 2.60667 8.30385 2.63789 8.15201 2.70035C7.81795 2.82526 7.72684 3.01262 7.84832 3.35613C7.93943 3.6684 8.0609 3.98068 8.15201 4.29296C8.27348 4.63646 8.24312 4.69892 7.90906 4.76137C7.42315 4.85505 6.78541 4.97997 6.32987 5.07365C5.93508 5.1361 5.90471 5.16733 5.99581 5.54206C6.39061 7.41572 8.03053 13.7862 8.03053 13.7862C8.12164 14.1609 8.18238 14.1921 8.54681 14.0984C8.9416 14.0048 9.36677 13.9423 9.76156 13.8174C9.94378 13.7549 10.0653 13.8174 10.126 14.0048C10.3082 14.5044 10.5208 14.9728 10.7334 15.4725C10.8245 15.7223 10.9763 15.7847 11.2193 15.7847C12.2518 15.7535 13.2844 15.7223 14.2865 15.691C15.1976 15.6598 15.0761 15.691 15.4102 16.5654C15.9568 18.1268 19.3885 25.7151 19.7529 26.9642L21.1499 26.527C21.0284 26.1211 16.4124 15.0977 16.2909 14.723C16.1998 14.4107 16.0479 14.317 15.7139 14.3795C14.5902 14.5668 13.4362 14.723 12.2822 14.8791C12.0696 14.9104 11.9481 14.8479 11.8874 14.6605C11.7659 14.3795 11.6141 14.0672 11.4926 13.7862C11.3711 13.5676 11.4622 13.4739 11.6748 13.4427C12.1607 13.3177 12.6466 13.1928 13.1933 13.0367C13.0414 12.6932 12.9199 12.3497 12.7985 12.0374C12.1 10.4448 11.4319 8.85219 10.7334 7.22836C10.2171 6.07293 9.73119 4.88628 9.21492 3.73086C9.12382 3.54349 9.09345 3.44981 9.30603 3.35613C10.0349 3.13753 10.7637 2.82526 11.523 2.54421C11.7659 2.45053 14.2865 9.07079 14.4687 9.07079C14.651 9.07079 13.3755 4.48032 13.4362 4.38664C13.7399 3.98068 14.4688 4.10559 14.5599 4.32418C14.7724 4.85505 15.0458 5.54206 15.2583 6.07293C15.562 6.79117 15.8657 7.54063 16.1694 8.25887C16.1998 8.25887 16.2301 8.22764 16.2605 8.22764C16.1694 7.75922 16.0783 7.29081 15.9872 6.79117C15.8354 5.97925 15.6835 5.1361 15.5317 4.32418C15.5013 4.07436 15.5317 3.94945 15.805 3.91823C16.5642 3.79332 16.5946 3.79331 16.8983 4.51155C17.3234 5.51084 17.779 6.47889 18.2041 7.47818C18.2345 7.54063 18.2649 7.57186 18.356 7.60309C18.2952 7.29081 18.2649 6.97853 18.2041 6.66626C18.0219 5.72943 17.8701 4.82383 17.6575 3.887C17.5968 3.6684 17.6575 3.54349 17.8701 3.48104C18.69 3.29367 18.5989 3.19999 18.8722 4.01191C19.6315 6.35398 20.3603 8.69605 21.1195 11.0069C21.2107 11.2567 21.1499 11.4129 20.9677 11.5378C20.4818 11.9125 20.0263 12.2872 19.5707 12.662C19.1759 13.0055 19.1759 13.0992 19.3581 13.5988C19.4796 13.9111 23.7313 25.3404 23.8528 25.7151L25.0979 25.3404C24.5512 23.779 21.2714 15.0977 20.6944 13.7549C20.5729 13.5051 20.6336 13.349 20.7855 13.1616C21.1803 12.6932 21.5751 12.2248 22.0002 11.7564C22.2432 11.4753 22.6076 11.2255 22.395 10.7259L24.0653 10.3511C24.3083 10.2574 24.3994 10.2262 24.3387 9.94516C24.0653 8.94587 23.8528 8.10273 23.6098 7.10344ZM11.1585 11.0381C11.5837 10.9444 12.0392 11.2255 12.1607 11.6939C12.2822 12.1623 12.0089 12.6307 11.5837 12.7244L9.18455 13.2865C8.75939 13.3802 8.30385 13.0992 8.18238 12.6307C8.0609 12.1623 8.33422 11.6939 8.75939 11.6002L11.1585 11.0381Z" fill="#5A00BD"/>
<path d="M8.85032 11.7876C8.51626 11.8813 8.30368 12.256 8.42516 12.5995C8.51627 12.943 8.88069 13.1616 9.21475 13.0367C9.54881 12.943 9.76139 12.5683 9.63992 12.2248C9.54881 11.8813 9.18438 11.6939 8.85032 11.7876Z" fill="#5A00BD"/>
<path d="M11.2801 11.4129C11.0067 11.5065 10.8853 11.7876 10.946 12.0374C11.0371 12.3185 11.3104 12.4434 11.5534 12.3809C11.8267 12.2872 11.9482 12.0062 11.8874 11.7564C11.7963 11.4753 11.523 11.3192 11.2801 11.4129Z" fill="#5A00BD"/>
<path d="M10.2172 11.85C10.0653 11.8813 10.0046 12.0374 10.0349 12.1935C10.0653 12.3497 10.2172 12.4121 10.369 12.3809C10.5208 12.3497 10.5816 12.1935 10.5512 12.0374C10.5208 11.9125 10.369 11.8188 10.2172 11.85Z" fill="#5A00BD"/>
<path d="M17.0807 16.7216C16.6251 15.5974 16.2911 14.8167 16.2607 14.723C16.1696 14.4107 16.0177 14.317 15.6837 14.3795C14.56 14.5668 13.406 14.723 12.252 14.8791C12.0394 14.9104 11.9179 14.8479 11.8572 14.6605C11.7357 14.3795 11.5839 14.0672 11.4624 13.7862C11.3409 13.5676 11.432 13.4739 11.6446 13.4427C12.1305 13.3177 12.6164 13.1928 13.1631 13.0367C13.0112 12.6932 12.8897 12.3497 12.7683 12.0374C12.0698 10.4448 11.4017 8.85219 10.7032 7.22836C10.1869 6.07293 9.701 4.88628 9.18473 3.73086C9.09362 3.54349 9.06325 3.44981 9.27583 3.35613C10.0351 3.07508 10.7639 2.79403 11.4928 2.48175C11.7357 2.38807 14.2563 9.03956 14.4689 9.00833C14.6511 8.9771 13.3756 4.41787 13.4364 4.32418C13.7401 3.91823 14.4689 4.04314 14.56 4.26173C14.7726 4.7926 15.0459 5.47961 15.2585 6.01048C15.5622 6.72871 15.8659 7.47818 16.1696 8.19641C16.2 8.19641 16.2303 8.16518 16.2607 8.16518C16.1696 7.69677 16.0785 7.22835 15.9874 6.72871C15.8355 5.91679 15.6837 5.07365 15.5318 4.26173C15.5015 4.04314 15.5015 3.91823 15.7748 3.887C16.534 3.76209 16.5644 3.76209 16.8681 4.48032C17.2932 5.47961 17.7488 6.44766 18.1739 7.44695C18.2043 7.5094 18.2347 7.54063 18.3258 7.57186C18.265 7.25958 18.2347 6.94731 18.1739 6.63503C17.9917 5.6982 17.8399 4.7926 17.6273 3.85577C17.5666 3.63718 17.6273 3.51227 17.8399 3.44981C18.6598 3.26245 18.5687 3.16876 18.8421 3.98068C19.6013 6.32275 20.3301 8.66483 21.0894 10.9757C21.1805 11.2255 21.1197 11.3816 20.9375 11.5065C20.4516 11.8813 19.9961 12.256 19.5405 12.6307C19.1457 12.9742 19.1457 13.0679 19.328 13.5676C19.3583 13.63 19.6316 14.4107 20.0568 15.5349L17.0807 16.7216Z" fill="#FFE500"/>
<path d="M32.0522 38.6121L26.1607 39.2991L23.5186 15.5037L29.4101 14.8167L29.6227 16.7215C30.6856 14.9416 32.3255 13.9423 34.4817 13.6612C35.6661 13.5363 36.8202 13.63 37.8831 14.0047C38.9763 14.3482 39.9482 14.9103 40.7985 15.6598C41.6488 16.4093 42.3473 17.2836 42.8939 18.3766C43.4406 19.4383 43.7746 20.625 43.9265 21.8741C44.0783 23.1544 43.9872 24.3411 43.6835 25.4965C43.3798 26.6519 42.8939 27.6824 42.2562 28.588C41.5881 29.4936 40.7985 30.2431 39.8267 30.8364C38.8549 31.4298 37.792 31.7733 36.5772 31.9294C34.4817 32.1792 32.69 31.6483 31.1108 30.3368L32.0522 38.6121ZM37.792 22.5923C37.7312 22.0615 37.5794 21.5618 37.3364 21.0934C37.0935 20.625 36.7898 20.2503 36.395 19.938C36.0002 19.6257 35.575 19.3759 35.0891 19.2197C34.6032 19.0636 34.0869 19.0012 33.5403 19.0948C33.024 19.1573 32.5381 19.3134 32.113 19.5633C31.6878 19.8131 31.3234 20.1566 31.0197 20.5313C30.716 20.9373 30.5034 21.3745 30.3516 21.8741C30.1997 22.3737 30.139 22.9046 30.1997 23.4355C30.2605 23.9663 30.4123 24.466 30.6553 24.9032C30.8982 25.3404 31.2323 25.7151 31.5967 26.0274C31.9915 26.3396 32.4167 26.5582 32.9026 26.7144C33.3885 26.8705 33.9047 26.933 34.421 26.8705C34.9373 26.8081 35.4232 26.6519 35.8483 26.4021C36.2735 26.1523 36.6379 25.8088 36.9416 25.434C37.2453 25.0281 37.4579 24.5909 37.6097 24.0913C37.792 23.6228 37.8223 23.1232 37.792 22.5923Z" fill="#5A00BD"/>
<path d="M71.3804 9.63287L77.3024 8.94586L79.2156 26.1211L73.2937 26.8081L73.0811 24.9032C72.0182 26.6831 70.3783 27.6824 68.2524 27.9323C67.0377 28.0884 65.8836 27.9635 64.8207 27.6512C63.7578 27.3077 62.786 26.7768 61.9357 26.0274C61.0853 25.2779 60.3869 24.4035 59.8402 23.3106C59.2936 22.2488 58.9595 21.0622 58.8077 19.7506C58.6862 18.5327 58.7469 17.3461 59.0506 16.1907C59.3543 15.0352 59.8099 14.0047 60.4476 13.0991C61.0854 12.1935 61.9053 11.4441 62.8771 10.8195C63.8489 10.2262 64.9422 9.85146 66.1873 9.69532C68.2828 9.4455 70.0746 10.0076 71.6234 11.3192L71.3804 9.63287ZM64.8815 19.0324C64.9422 19.5945 65.0941 20.0941 65.337 20.5625C65.58 21.031 65.8836 21.4057 66.2784 21.718C66.6429 22.0302 67.0984 22.2801 67.5843 22.405C68.0702 22.5611 68.5865 22.5923 69.1331 22.5299C69.6494 22.4674 70.1353 22.3113 70.5908 22.0615C71.0464 21.8116 71.4108 21.4681 71.7145 21.0934C72.0182 20.6874 72.2308 20.2503 72.3826 19.7506C72.5344 19.251 72.5952 18.7513 72.5344 18.2205C72.4737 17.6896 72.3219 17.19 72.0485 16.7215C71.7752 16.2531 71.4715 15.8784 71.1071 15.5661C70.7427 15.2538 70.2871 15.004 69.8012 14.8791C69.3153 14.723 68.7991 14.6917 68.2828 14.7542C67.7362 14.8167 67.2502 14.9728 66.7947 15.2226C66.3392 15.4724 65.9748 15.8159 65.6711 16.1907C65.3674 16.5966 65.1548 17.0338 65.0029 17.5022C64.8815 17.9706 64.8207 18.5015 64.8815 19.0324Z" fill="#5A00BD"/>
<path d="M89.8142 11.6314C88.6602 11.1943 87.5669 11.0069 86.5343 11.1318C85.9877 11.1943 85.5625 11.3504 85.2588 11.6314C84.9552 11.8813 84.8033 12.2248 84.864 12.5995C84.8944 12.7869 84.9248 12.9742 84.9855 13.0679C85.0462 13.1928 85.1981 13.2865 85.3803 13.3802C85.5625 13.4739 85.8662 13.5363 86.2306 13.5988C86.5951 13.6612 87.081 13.6925 87.6884 13.7549C89.3586 13.9111 90.6341 14.3483 91.5452 15.1289C92.4563 15.8784 92.9726 16.9401 93.1244 18.2829C93.2459 19.2822 93.1548 20.219 92.8511 21.0622C92.5474 21.9053 92.0919 22.6548 91.4541 23.2794C90.8164 23.9039 90.0268 24.4348 89.0853 24.8407C88.1439 25.2467 87.081 25.5277 85.927 25.6839C83.6796 25.9337 81.3716 25.559 79.0332 24.4972L80.7035 19.9692C82.4953 20.9373 84.1048 21.3432 85.5929 21.1559C86.1395 21.0934 86.5647 20.9061 86.8988 20.625C87.2328 20.344 87.3543 20.0005 87.3239 19.6257C87.2936 19.4071 87.2632 19.2198 87.1721 19.0949C87.1113 18.9699 86.9595 18.845 86.7773 18.7201C86.5951 18.6264 86.3218 18.5328 85.9877 18.4703C85.6536 18.4078 85.1981 18.3454 84.6211 18.3142C82.7686 18.158 81.4323 17.7208 80.6124 17.0651C79.7924 16.4093 79.3369 15.41 79.185 14.0984C79.0636 13.1304 79.1547 12.256 79.428 11.4441C79.7013 10.6322 80.1265 9.91393 80.7035 9.3206C81.2805 8.69605 82.0397 8.19641 82.9204 7.79045C83.8011 7.38449 84.8337 7.13467 85.9573 7.00976C87.8098 6.79116 89.632 6.9473 91.4541 7.47817L89.8142 11.6314Z" fill="#5A00BD"/>
<path d="M98.1049 15.9721C98.4086 18.5952 99.7448 19.7507 102.114 19.4696C103.389 19.3135 104.3 18.6577 104.816 17.5335L110.526 16.8777C109.797 20.9373 107.155 23.2481 102.569 23.779C101.172 23.9352 99.8359 23.8727 98.6212 23.5917C97.4064 23.3106 96.3435 22.7797 95.402 22.0927C94.491 21.3745 93.7318 20.5001 93.1547 19.4384C92.5777 18.3766 92.2133 17.1588 92.0615 15.7847C91.9096 14.3483 91.9703 13.0367 92.274 11.8501C92.5777 10.6634 93.094 9.60168 93.7925 8.69608C94.491 7.79047 95.402 7.07224 96.4953 6.51014C97.5886 5.94804 98.8337 5.57331 100.291 5.41717C101.688 5.26104 102.994 5.32349 104.179 5.63577C105.363 5.94804 106.365 6.44769 107.246 7.19715C108.127 7.94661 108.825 8.88344 109.372 10.0076C109.918 11.1631 110.283 12.4746 110.435 13.9735L110.495 14.5981L98.1049 15.9721ZM104.634 11.6315C104.331 10.8196 103.875 10.1638 103.207 9.72659C102.539 9.2894 101.78 9.10204 100.899 9.22695C99.9878 9.32063 99.2589 9.66413 98.7426 10.2262C98.2264 10.7883 97.9227 11.5066 97.8923 12.4434L104.634 11.6315Z" fill="#5A00BD"/>
<path d="M56.53 17.0963C56.1655 16.7216 55.6796 16.4093 55.1026 16.2219C54.5256 16.0345 53.9486 15.9721 53.3716 16.0345C52.7642 16.097 52.2479 16.2844 51.7924 16.5966C51.3369 16.9089 50.9724 17.2836 50.6687 17.7208C50.3651 18.158 50.1525 18.6889 50.031 19.251C49.9095 19.8131 49.8488 20.4064 49.9399 20.9997C50.0006 21.6243 50.1525 22.1864 50.3954 22.686C50.6384 23.2169 50.9724 23.6541 51.3672 24.0288C51.762 24.4035 52.2176 24.6846 52.7338 24.8407C53.2501 25.0281 53.8271 25.0593 54.4345 24.9969C55.0115 24.9344 55.5581 24.7471 56.1048 24.466C56.6514 24.185 57.0462 23.8102 57.3499 23.3418L60.9031 26.9018C60.2653 27.6824 59.415 28.3382 58.3521 28.8691C57.2892 29.4 56.1048 29.7435 54.8597 29.8996C53.5234 30.0557 52.2176 29.9933 51.0028 29.7122C49.788 29.4312 48.6948 28.9316 47.7533 28.2133C46.8119 27.4951 46.0223 26.5895 45.3845 25.4965C44.7772 24.4035 44.3824 23.1232 44.2002 21.6867C44.0483 20.2503 44.1394 18.9387 44.5038 17.7208C44.8683 16.503 45.4453 15.4412 46.2045 14.5356C46.9637 13.63 47.9355 12.8806 49.0288 12.3185C50.1525 11.7564 51.3672 11.3816 52.7035 11.2255C53.3108 11.163 53.9486 11.1318 54.556 11.1943C55.1633 11.2255 55.7707 11.3192 56.3477 11.4753C56.9247 11.6002 57.4714 11.7876 57.9573 12.0374C58.4432 12.2872 58.8987 12.537 59.2935 12.8493L56.53 17.0963Z" fill="#5A00BD"/>
</svg>
