<?xml version="1.0" encoding="utf-8"?>
<!-- Generator: Adobe Illustrator 24.0.0, SVG Export Plug-In . SVG Version: 6.00 Build 0)  -->
<svg version="1.1" id="Layer_1" xmlns="http://www.w3.org/2000/svg" xmlns:xlink="http://www.w3.org/1999/xlink" x="0px" y="0px"
	 viewBox="0 0 95.4 92.6" style="enable-background:new 0 0 95.4 92.6;" xml:space="preserve">
<style type="text/css">
	.st0{opacity:0.5;fill:none;stroke:#D1D5DB;enable-background:new    ;}
	.st1{fill:#FFE500;stroke:#FFFFFF;stroke-width:5;}
	.st2{fill:#E11D48;}
</style>
<path class="st0" d="M43.8,9.6l-8.2-6.5C33,1,29,2.5,28.4,5.8l-1.9,10.3c-0.3,1.7-1.9,3-3.6,2.9l-10.4-0.5c-3.4-0.2-5.8,3.4-4.3,6.5
	l4.5,9.4c0.8,1.6,0.2,3.5-1.2,4.4l-8.7,5.7c-2.9,1.9-2.7,6.1,0.3,7.7l9.2,4.9c1.5,0.8,2.2,2.7,1.6,4.3l-3.7,9.8
	c-1.2,3.2,1.4,6.5,4.8,6.1l10.4-1.4c1.7-0.2,3.4,0.9,3.9,2.5l2.8,10.1c0.9,3.3,5,4.4,7.5,2.1l7.5-7.2c1.3-1.2,3.2-1.3,4.6-0.2
	l8.2,6.5c2.7,2.1,6.6,0.6,7.2-2.7L69,76.7c0.3-1.7,1.9-3,3.6-2.9L83,74.3c3.4,0.2,5.8-3.4,4.3-6.5l-4.5-9.4C82,56.9,82.5,55,84,54
	l8.7-5.7c2.9-1.9,2.7-6.1-0.3-7.7l-9.2-4.9c-1.5-0.8-2.2-2.7-1.6-4.3l3.7-9.8c1.2-3.2-1.4-6.5-4.8-6.1l-10.4,1.4
	c-1.7,0.2-3.4-0.9-3.9-2.5L63.4,4.3c-0.9-3.3-5-4.4-7.5-2.1l-7.5,7.2C47.2,10.6,45.2,10.7,43.8,9.6z"/>
<path class="st1" d="M33.8,5.4L42,12c2.5,2,6.2,1.9,8.6-0.4l7.5-7.2c0.8-0.8,2.2-0.4,2.5,0.7l2.8,10.1c0.9,3.1,3.9,5.2,7.2,4.7
	l10.4-1.4c1.1-0.2,2,1,1.6,2l-3.7,9.8c-1.2,3.1,0.1,6.5,3,8l9.2,4.9c1,0.5,1.1,2,0.1,2.6l-8.7,5.7c-2.7,1.8-3.7,5.3-2.3,8.3l4.5,9.4
	c0.5,1-0.3,2.2-1.4,2.2l-10.4-0.5c-3.3-0.2-6.1,2.1-6.7,5.3l-1.9,10.3c-0.2,1.1-1.5,1.6-2.4,0.9l-8.2-6.5c-2.5-2-6.2-1.9-8.6,0.4
	l-7.5,7.2c-0.8,0.8-2.2,0.4-2.5-0.7l-2.8-10.1c-0.9-3.1-3.9-5.2-7.2-4.7l-10.4,1.4c-1.1,0.2-2-1-1.6-2l3.7-9.8c1.2-3.1-0.1-6.5-3-8
	l-9.2-4.9c-1-0.5-1.1-2-0.1-2.6l8.7-5.7c2.7-1.8,3.7-5.3,2.3-8.3L11,23.6c-0.5-1,0.3-2.2,1.4-2.2L22.8,22c3.3,0.2,6.1-2.1,6.7-5.3
	l1.9-10.3C31.6,5.2,32.9,4.7,33.8,5.4z"/>
<path class="st2" d="M39.9,44l3.9,10.5l-2.4,0.9l-6.7-3.9l2.1,5.6l-2.9,1.1L30,47.8l2.4-0.9l6.7,3.9L37,45.1L39.9,44z M52.2,46.8
	c0,0,0.1,0.3,0.2,0.7l-5.9,2.2c0.3,0.4,0.6,0.6,1.1,0.7c0.4,0.1,0.9,0,1.4-0.2c0.4-0.1,0.7-0.3,0.9-0.5c0.2-0.2,0.5-0.5,0.7-0.9
	l2.1,1c-0.5,1.2-1.4,2-3,2.6c-0.9,0.4-1.9,0.5-2.7,0.4c-0.9-0.1-1.6-0.4-2.2-0.9c-0.6-0.5-1.1-1.1-1.4-2c-0.3-0.8-0.4-1.6-0.2-2.4
	c0.2-0.8,0.5-1.5,1-2.1c0.5-0.6,1.2-1.1,2.1-1.4c0.8-0.3,1.6-0.4,2.4-0.3c0.8,0.1,1.5,0.4,2.1,0.9C51.4,45.2,51.8,45.9,52.2,46.8z
	 M47,46.2c-0.4,0.2-0.8,0.4-1,0.8c-0.2,0.4-0.3,0.8-0.2,1.2l3.3-1.2c-0.2-0.4-0.6-0.7-1-0.8C47.9,46.1,47.5,46.1,47,46.2z
	 M64.8,37.4l0.1,9.2l-2.8,1L59,43.8l0.1,5l-2.8,1l-5.9-7l2.7-1l3.5,4.3l-0.1-5.6l2.4-0.9l3.5,4.3l-0.1-5.6L64.8,37.4z"/>
</svg>
