<svg width="70" height="70" viewBox="0 0 70 70" fill="none" xmlns="http://www.w3.org/2000/svg">
<g clip-path="url(#clip0_1799_5275)">
<path d="M1.48795 34.5811C1.48633 40.4624 3.02307 46.2052 5.94516 51.2669L1.2085 68.5612L18.9071 63.9206C23.8023 66.5855 29.287 67.9819 34.8606 67.9822H34.8752C53.2747 67.9822 68.2522 53.0101 68.2601 34.6074C68.2636 25.69 64.794 17.3047 58.4902 10.996C52.1875 4.68783 43.8051 1.21198 34.8739 1.20791C16.4723 1.20791 1.49582 16.1792 1.48822 34.5811" fill="url(#paint0_linear_1799_5275)"/>
<path d="M0.295681 34.5702C0.293782 40.6632 1.8856 46.6113 4.91188 51.8543L0.00537109 69.7686L18.3386 64.9616C23.39 67.7158 29.0773 69.1679 34.8646 69.17H34.8795C53.939 69.17 69.4546 53.6593 69.4627 34.5979C69.466 25.3601 65.8716 16.6733 59.3426 10.1386C52.8128 3.60473 44.1306 0.00379845 34.8795 0C15.8167 0 0.303549 15.5085 0.295952 34.5702H0.295681ZM11.2135 50.9513L10.529 49.8647C7.65138 45.2892 6.13254 40.0017 6.13471 34.5724C6.14095 18.7288 19.0351 5.83876 34.8903 5.83876C42.5686 5.84202 49.7846 8.83519 55.212 14.2659C60.6392 19.6971 63.6256 26.9169 63.6237 34.5957C63.6167 50.4393 50.7223 63.331 34.8795 63.331H34.8681C29.7095 63.3283 24.6503 61.9429 20.2381 59.325L19.1881 58.7023L8.30878 61.5547L11.2135 50.951V50.9513Z" fill="url(#paint1_linear_1799_5275)"/>
<path d="M26.2362 20.1177C25.5888 18.6789 24.9076 18.6499 24.2919 18.6246C23.7878 18.6029 23.2115 18.6045 22.6358 18.6045C22.0595 18.6045 21.1232 18.8213 20.3318 19.6855C19.5395 20.5504 17.3071 22.6407 17.3071 26.8919C17.3071 31.1435 20.4037 35.2521 20.8353 35.8292C21.2676 36.4052 26.8133 45.4086 35.5964 48.8722C42.8959 51.7506 44.3814 51.1781 45.9656 51.0338C47.5501 50.89 51.0783 48.9441 51.7981 46.9263C52.5185 44.9088 52.5185 43.1794 52.3025 42.818C52.0865 42.458 51.5103 42.2418 50.6461 41.8098C49.7817 41.3776 45.5334 39.2871 44.7414 38.9987C43.9492 38.7106 43.3732 38.5668 42.7969 39.432C42.2206 40.2959 40.5658 42.2418 40.0615 42.818C39.5576 43.3957 39.0533 43.4676 38.1894 43.0354C37.3247 42.6018 34.5418 41.6904 31.2401 38.7469C28.6713 36.4564 26.937 33.628 26.4329 32.7627C25.9288 31.8988 26.3789 31.4306 26.8122 31C27.2005 30.6128 27.6766 29.9909 28.1091 29.4866C28.54 28.9819 28.6838 28.6219 28.9719 28.0456C29.2603 27.4688 29.116 26.9641 28.9003 26.5319C28.6838 26.0997 27.0046 21.8264 26.2362 20.118" fill="white"/>
</g>
<defs>
<linearGradient id="paint0_linear_1799_5275" x1="34.7343" y1="68.5612" x2="34.7343" y2="1.20791" gradientUnits="userSpaceOnUse">
<stop stop-color="#1FAF38"/>
<stop offset="1" stop-color="#60D669"/>
</linearGradient>
<linearGradient id="paint1_linear_1799_5275" x1="34.7341" y1="69.7686" x2="34.7341" y2="0" gradientUnits="userSpaceOnUse">
<stop stop-color="#F9F9F9"/>
<stop offset="1" stop-color="white"/>
</linearGradient>
<clipPath id="clip0_1799_5275">
<rect width="69.468" height="70" fill="white"/>
</clipPath>
</defs>
</svg>
